<svg id="noun_Email_2817898" xmlns="http://www.w3.org/2000/svg" width="403" height="276" viewBox="0 0 403 276">
  <g id="Group_126" data-name="Group 126">
    <path id="Path_114" data-name="Path 114" d="M403,46,272,138,403,258V46Z"/>
    <path id="Path_115" data-name="Path 115" d="M0,22,183,150a31.521,31.521,0,0,0,37,0L403,22C402,9,392,0,380,0H24A23.952,23.952,0,0,0,0,22Z"/>
    <path id="Path_116" data-name="Path 116" d="M1,258,131,138,0,46V253A10.873,10.873,0,0,0,1,258Z"/>
    <path id="Path_117" data-name="Path 117" d="M390,274,256,149l-24,17c-19,13-42,13-60,0l-24-17L13,274a35.949,35.949,0,0,0,11,2H380A35.53,35.53,0,0,0,390,274Z"/>
  </g>
</svg>
