<svg xmlns="http://www.w3.org/2000/svg" width="2264.445" height="2967.152" viewBox="0 0 2264.445 2967.152">
  <g id="Group_129" data-name="Group 129" transform="translate(0 0)">
    <path id="Path_121" data-name="Path 121" d="M2446.6,417.178V3074.452H182.15V417.178L331.9,716.776H2296.749l149.846-299.6ZM212.523,107.3h2203.7L2161.879,548.763H466.773L212.523,107.3Zm829.785,2258.718c-124.777,105.155-283.777-84.312-160.173-188.81,107.643-91.354,196.367-175.853,270.07-252.841-145.01-197.917-198.668-362.315-197.494-489.862,5.258-500.19,742.656-508.687,736.178-9.295-1.643,128.157-62.342,296.171-218.572,501.317,73.28,78.725,163.459,164.4,273.966,258.005,123.651,104.216-35.4,293.683-160.267,188.528-107.314-90.7-198.339-176.979-275-258.8-75.956,79.523-165.009,163.554-268.708,251.762Zm271.713-635.577c91.963-129.613,128.768-231.059,129.613-308.047,1.972-167.168-239.744-156.747-241.668,14.036-.516,74.829,30.842,172.567,112.056,294.011Z" transform="translate(-182.15 -107.3)" fill-rule="evenodd"/>
  </g>
</svg>
