<svg xmlns="http://www.w3.org/2000/svg" width="315.197" height="191.556" viewBox="0 0 315.197 191.556">
  <defs>
    <style>
      .cls-1 {
        fill-rule: evenodd;
      }
    </style>
  </defs>
  <g id="Group_127" data-name="Group 127" transform="translate(-0.907 -1.89)">
    <path id="Path_118" data-name="Path 118" class="cls-1" d="M12.119,1.89H304.891A11.246,11.246,0,0,1,316.1,13.1V43.851H.907V13.1A11.246,11.246,0,0,1,12.12,1.89ZM316.1,79.762V182.233a11.246,11.246,0,0,1-11.213,11.213H12.12A11.246,11.246,0,0,1,.907,182.233V79.762H316.1ZM41.628,117.869a3.353,3.353,0,1,0-6.706,0v17.465a3.353,3.353,0,1,0,6.706,0Zm13.208,0a3.353,3.353,0,1,0-6.706,0v17.465a3.353,3.353,0,1,0,6.706,0Zm13.208,0a3.353,3.353,0,1,0-6.706,0v17.465a3.353,3.353,0,1,0,6.706,0Zm13.208,0a3.353,3.353,0,1,0-6.706,0v17.465a3.353,3.353,0,0,0,6.706,0Zm13.208,0a3.353,3.353,0,1,0-6.706,0v17.465a3.353,3.353,0,0,0,6.706,0Zm13.208,0a3.353,3.353,0,1,0-6.706,0v17.465a3.353,3.353,0,1,0,6.706,0Zm13.208,0a3.353,3.353,0,1,0-6.706,0v17.465a3.353,3.353,0,1,0,6.706,0Zm13.208,0a3.353,3.353,0,1,0-6.706,0v17.465a3.353,3.353,0,0,0,6.706,0Zm13.208,0a3.353,3.353,0,1,0-6.706,0v17.465a3.353,3.353,0,0,0,6.706,0Zm38.888-3.353h92.561v51.52H186.176ZM34.786,159.33H148.523v6.706H34.786Z" transform="translate(0 0)"/>
  </g>
</svg>
